<svg version="1.1" id="Layer_1" xmlns="http://www.w3.org/2000/svg" xmlns:xlink="http://www.w3.org/1999/xlink" x="0px" y="0px"
	 width="100%" viewBox="0 0 848 1024" enable-background="new 0 0 848 1024" xml:space="preserve">
<path fill="#000000" opacity="1.000000" stroke="none" 
	d="
M481.000000,50.050041 
	C493.166565,50.041466 504.834137,50.117401 516.499146,49.976906 
	C520.507690,49.928627 522.203308,51.368637 522.135193,55.525551 
	C521.963135,66.022522 521.912354,76.528671 522.170837,87.022324 
	C522.291382,91.915359 520.350464,93.253487 515.677307,93.237389 
	C475.344788,93.098381 435.011536,93.153534 394.678497,93.160233 
	C387.579651,93.161415 387.836365,93.181915 387.830414,100.232994 
	C387.811249,122.894485 387.691437,145.556686 387.551666,168.217880 
	C387.199188,225.382004 387.470276,282.549805 387.338287,339.715790 
	C387.327271,344.480347 388.122223,346.690948 393.667999,347.169708 
	C424.051147,349.792542 453.464691,356.650543 481.522797,368.837830 
	C490.702484,372.825165 499.610687,377.345123 508.202942,382.490631 
	C510.019897,383.578766 511.389191,384.677521 511.374542,387.083405 
	C511.296234,399.915131 511.320648,412.747528 511.279938,425.579559 
	C511.278473,426.039062 510.967133,426.497620 510.813049,426.921356 
	C509.010559,427.595825 507.925568,426.312775 506.704834,425.552277 
	C475.352325,406.020447 441.096619,394.768463 404.589111,390.333008 
	C370.947357,386.245636 337.446075,386.946350 304.404755,395.345734 
	C289.594757,399.110596 275.674133,404.810486 263.633667,414.616394 
	C245.561813,429.334381 247.136032,450.472961 267.436920,462.051270 
	C281.230774,469.918335 296.498322,473.570831 311.844147,476.696106 
	C350.161041,484.499573 388.568848,491.858521 426.867798,499.747345 
	C447.136353,503.922272 467.001282,509.637970 485.290863,519.675537 
	C502.292847,529.006409 515.376892,541.657349 519.416504,561.621948 
	C524.553894,587.012329 516.285522,607.534729 496.584106,623.688538 
	C480.392181,636.964783 461.350311,644.294739 441.251648,649.225342 
	C439.348297,649.692322 437.452118,650.188354 435.470062,651.535034 
	C440.205841,652.598877 444.947327,653.638245 449.676483,654.730652 
	C473.376465,660.205261 495.753815,669.014648 516.884460,681.086304 
	C520.670654,683.249390 522.303955,685.797363 522.181213,690.231934 
	C521.895508,700.557251 522.114563,710.895996 522.061462,721.228943 
	C522.052429,722.985962 522.594849,724.916321 521.109497,726.430786 
	C519.382629,727.056335 518.218567,725.877502 516.983093,725.159180 
	C489.767456,709.336365 460.763336,698.324219 429.552429,693.883545 
	C386.112244,687.703003 343.726593,690.491516 304.199402,711.721313 
	C276.708069,726.486755 255.841766,747.577271 247.779800,778.482056 
	C237.470764,818.000732 249.014282,851.611572 279.009216,878.666382 
	C302.804749,900.129517 331.706879,910.700867 363.120270,914.751831 
	C417.611176,921.778625 468.349182,910.286743 515.872009,883.294128 
	C517.412170,882.419373 518.832031,881.078369 520.863708,881.285156 
	C522.563354,882.702271 522.036621,884.664551 522.046204,886.412720 
	C522.103882,896.912354 521.915527,907.416138 522.162842,917.910278 
	C522.262695,922.146179 520.673706,924.585144 517.039001,926.640015 
	C488.123383,942.987244 457.285492,953.328247 424.295197,957.531189 
	C382.758514,962.822876 342.795929,957.813049 305.178589,939.032715 
	C264.741272,918.844604 235.457123,888.223450 222.933319,844.051392 
	C206.036606,784.455872 226.582153,724.786133 275.751373,686.950134 
	C292.032166,674.421936 309.994629,665.152893 329.453888,658.699585 
	C331.006287,658.184814 332.640228,657.850586 334.288788,656.202148 
	C319.491730,654.897400 305.178558,653.129822 291.013336,650.342224 
	C270.189850,646.244385 249.969162,640.394287 230.872253,630.853394 
	C225.621063,628.229858 223.149750,625.275452 223.503998,619.095398 
	C224.075302,609.128235 223.638809,599.104248 223.669479,589.104431 
	C223.674927,587.323730 223.337509,585.463684 224.223709,583.877686 
	C226.298798,583.161743 227.598984,584.494324 229.023254,585.216980 
	C257.570984,599.702271 288.000366,607.607300 319.602448,611.844238 
	C344.318420,615.157898 369.127014,615.570496 393.911346,614.497498 
	C417.862091,613.460632 441.729523,610.873108 464.587769,602.759277 
	C471.364441,600.353821 477.937286,597.528992 483.743225,593.195435 
	C496.932495,583.350952 496.920258,568.925598 483.657074,558.981689 
	C475.787506,553.081543 466.648956,549.904053 457.312592,547.294495 
	C430.019531,539.665894 401.947205,535.829346 374.208740,530.372375 
	C347.613190,525.140198 320.731110,521.240234 294.717773,513.326355 
	C277.775513,508.172089 261.224823,502.155518 246.990799,491.104736 
	C231.875900,479.370056 224.679794,463.643677 223.776596,444.903107 
	C222.020416,408.464783 240.692017,384.071167 270.900848,367.084534 
	C291.841949,355.309204 314.839508,349.985352 338.592590,347.665527 
	C343.228363,347.212769 347.877960,346.872650 352.528442,346.609192 
	C356.096069,346.407104 357.767242,345.093445 357.762177,341.093262 
	C357.659180,260.093933 357.645599,179.094406 357.768860,98.095154 
	C357.776123,93.308632 355.361969,93.125786 351.834167,93.130119 
	C311.667847,93.179497 271.501434,93.163094 231.335068,93.171791 
	C223.658340,93.173447 223.656769,93.188515 223.652237,85.528419 
	C223.646240,75.361832 223.769119,65.192802 223.572403,55.029938 
	C223.500305,51.305962 224.901230,49.890564 228.504929,50.021366 
	C232.166382,50.154266 235.836975,50.027699 239.503555,50.027977 
	C319.835693,50.034100 400.167847,50.042065 481.000000,50.050041 
z"/>
</svg>
